<svg height="100%" version="1.1" width="100%" xmlns="http://www.w3.org/2000/svg" preserveAspectRatio="xMidYMid meet" viewBox="0 0 600 442" xmlns:xlink="http://www.w3.org/1999/xlink"><desc>Created with Snap</desc><defs/><g id="root" contentwidth="88.49589624994333" contentheight="147.33333333333334">
          <rect class="background" height="2000%" width="2000%" y="-1000%" x="-1000%" style="" fill="#ffffff"/>
          <rect class="watermarklayer" height="100%" width="100%" y="0" x="0" style="" fill="none"/>
          <g class="content" id="content" transform="matrix(1.5417,0,0,1.5417,250.9727,275.0434)">
            <g class="icon">
            </g>
            <g id="icon_name_and_slogan_gap">
            </g>
            <g class="name_and_slogan" id="name_and_slogan_id">
              <g class="name"><g id="nameDefaultGroup"><path d="M60 -61.638600312174816C60 -61.638600312174816 50.42 -49.986336488024975 50.42 -49.986336488024975C50.42 -49.986336488024975 40.84 -36.21090324388761 40.84 -36.21090324388761C40.84 -36.21090324388761 31.26 -20.175741880607696 31.26 -20.175741880607696C31.26 -20.175741880607696 21.68 -4.652615319841832 21.68 -4.652615319841832C21.68 -4.652615319841832 12.1 8.33 12.1 8.33C12.1 8.33 10.299999999999999 7.789999999999999 10.299999999999999 7.789999999999999C10.299999999999999 7.789999999999999 8.5 7.25 8.5 7.25C8.5 7.25 6.699999999999999 6.71 6.699999999999999 6.71C6.699999999999999 6.71 4.8999999999999995 6.17 4.8999999999999995 6.17C4.8999999999999995 6.17 3.1 5.63 3.1 5.63C3.1 5.63 3.1 3.2263988 3.1 3.2263988C3.1 3.2263988 3.1 0.8227976000000004 3.1 0.8227976000000004C3.1 0.8227976000000004 3.1 -1.5808035999999985 3.1 -1.5808035999999985C3.1 -1.5808035999999985 3.1 -3.9844048 3.1 -3.9844048C3.1 -3.9844048 3.1 -6.388005999999999 3.1 -6.388005999999999C3.1 -6.388005999999999 10.58 -16.265044934143603 10.58 -16.265044934143603C10.58 -16.265044934143603 18.06 -27.599621804803327 18.06 -27.599621804803327C18.06 -27.599621804803327 25.54 -40.456878946580645 25.54 -40.456878946580645C25.54 -40.456878946580645 33.019999999999996 -53.666260483463056 33.019999999999996 -53.666260483463056C33.019999999999996 -53.666260483463056 40.5 -64.33704474505723 40.5 -64.33704474505723C40.5 -64.33704474505723 33.32 -66.55695535192508 33.32 -66.55695535192508C33.32 -66.55695535192508 26.14 -66.22781346805411 26.14 -66.22781346805411C26.14 -66.22781346805411 18.96 -64.02566562830384 18.96 -64.02566562830384C18.96 -64.02566562830384 11.780000000000001 -61.946149199999994 11.780000000000001 -61.946149199999994C11.780000000000001 -61.946149199999994 4.6 -59.98926418314255 4.6 -59.98926418314255C4.6 -59.98926418314255 4.6 -62.9025545723205 4.6 -62.9025545723205C4.6 -62.9025545723205 4.6 -65.81584496149843 4.6 -65.81584496149843C4.6 -65.81584496149843 4.6 -68.72913535067639 4.6 -68.72913535067639C4.6 -68.72913535067639 4.6 -71.64242573985432 4.6 -71.64242573985432C4.6 -71.64242573985432 4.6 -74.52499999999999 4.6 -74.52499999999999C4.6 -74.52499999999999 15.68 -78.67999999999999 15.68 -78.67999999999999C15.68 -78.67999999999999 26.759999999999998 -82.835 26.759999999999998 -82.835C26.759999999999998 -82.835 37.839999999999996 -81.2975 37.839999999999996 -81.2975C37.839999999999996 -81.2975 48.92 -77.1425 48.92 -77.1425C48.92 -77.1425 60 -72.9875 60 -72.9875C60 -72.9875 60 -70.71801038501559 60 -70.71801038501559C60 -70.71801038501559 60 -68.44815786680542 60 -68.44815786680542C60 -68.44815786680542 60 -66.1783053485952 60 -66.1783053485952C60 -66.1783053485952 60 -63.90845283038503 60 -63.90845283038503C60 -63.90845283038503 60 -61.638600312174816 60 -61.638600312174816C60 -61.638600312174816 60 -61.638600312174816 60 -61.638600312174816M60.5 4.7C60.5 4.7 51.58 7.376000000000001 51.58 7.376000000000001C51.58 7.376000000000001 42.66 10.052000000000001 42.66 10.052000000000001C42.66 10.052000000000001 33.739999999999995 12.728 33.739999999999995 12.728C33.739999999999995 12.728 24.82 12.146 24.82 12.146C24.82 12.146 15.9 9.469999999999999 15.9 9.469999999999999C15.9 9.469999999999999 17.98 6.768806128 17.98 6.768806128C17.98 6.768806128 20.060000000000002 3.9555108650822053 20.060000000000002 3.9555108650822053C20.060000000000002 3.9555108650822053 22.14 1.0287236405577493 22.14 1.0287236405577493C22.14 1.0287236405577493 24.22 -2.0129461162622304 24.22 -2.0129461162622304C24.22 -2.0129461162622304 26.3 -5.170888976066598 26.3 -5.170888976066598C26.3 -5.170888976066598 33.14 -5.000145239375652 33.14 -5.000145239375652C33.14 -5.000145239375652 39.980000000000004 -6.112514922955256 39.980000000000004 -6.112514922955256C39.980000000000004 -6.112514922955256 46.82000000000001 -7.24994727758585 46.82000000000001 -7.24994727758585C46.82000000000001 -7.24994727758585 53.660000000000004 -8.41244230326743 53.660000000000004 -8.41244230326743C53.660000000000004 -8.41244230326743 60.5 -9.6 60.5 -9.6C60.5 -9.6 60.5 -6.739999999999998 60.5 -6.739999999999998C60.5 -6.739999999999998 60.5 -3.879999999999999 60.5 -3.879999999999999C60.5 -3.879999999999999 60.5 -1.0199999999999978 60.5 -1.0199999999999978C60.5 -1.0199999999999978 60.5 1.8400000000000016 60.5 1.8400000000000016C60.5 1.8400000000000016 60.5 4.7 60.5 4.7" style="" fill="#d40e1e" id="namepathdata"/></g></g>
              <g class="slogan"><g id="sloganDefaultGroup"/></g>
            </g>
            <g class="border">
            </g>
          </g>
          <defs id="defs">
            <mask xmlns="http://www.w3.org/2000/svg" id="mask">
                <rect id="showAll" fill="white" x="0" y="0" width="0" height="0"/>
                <rect id="hideNameBg" fill="black" x="0" y="0" width="0" height="0" stroke-width="2" stroke="black"/>
                <rect id="hideSloganBg" fill="black" x="0" y="0" width="0" height="0" stroke-width="2" stroke="black"/>
            </mask>
          
          </defs>
        </g>
        </svg>